<svg width="512" height="512" viewBox="0 0 512 512" xmlns="http://www.w3.org/2000/svg">
<rect width="512" height="512" rx="30"/>
<path d="M57.8683 227L32.4705 139.727H55.7802L68.9478 196.915H69.6722L84.7148 139.727H103.721L118.763 197.043H119.488L132.698 139.727H155.965L130.61 227H110.283L94.5586 174.074H93.8768L78.1523 227H57.8683ZM185.517 189.67V227H164.679V139.727H184.836V173.562H185.56C187.037 169.528 189.452 166.375 192.804 164.102C196.185 161.83 200.319 160.693 205.205 160.693C209.807 160.693 213.813 161.716 217.222 163.761C220.631 165.778 223.273 168.634 225.148 172.327C227.051 176.02 227.989 180.338 227.961 185.281V227H207.123V189.372C207.151 185.736 206.242 182.895 204.395 180.849C202.549 178.804 199.949 177.781 196.597 177.781C194.409 177.781 192.478 178.264 190.801 179.23C189.154 180.168 187.861 181.517 186.924 183.278C186.015 185.04 185.546 187.17 185.517 189.67ZM271.522 228.236C264.647 228.236 258.738 226.83 253.795 224.017C248.88 221.176 245.088 217.227 242.417 212.17C239.775 207.085 238.454 201.19 238.454 194.486C238.454 187.753 239.775 181.858 242.417 176.801C245.088 171.716 248.88 167.767 253.795 164.955C258.738 162.114 264.647 160.693 271.522 160.693C278.397 160.693 284.292 162.114 289.207 164.955C294.15 167.767 297.943 171.716 300.585 176.801C303.255 181.858 304.591 187.753 304.591 194.486C304.591 201.19 303.255 207.085 300.585 212.17C297.943 217.227 294.15 221.176 289.207 224.017C284.292 226.83 278.397 228.236 271.522 228.236ZM271.65 212.511C274.15 212.511 276.267 211.744 278 210.21C279.733 208.676 281.054 206.545 281.963 203.818C282.9 201.091 283.369 197.937 283.369 194.358C283.369 190.722 282.9 187.54 281.963 184.812C281.054 182.085 279.733 179.955 278 178.42C276.267 176.886 274.15 176.119 271.65 176.119C269.065 176.119 266.877 176.886 265.088 178.42C263.326 179.955 261.977 182.085 261.039 184.812C260.13 187.54 259.676 190.722 259.676 194.358C259.676 197.937 260.13 201.091 261.039 203.818C261.977 206.545 263.326 208.676 265.088 210.21C266.877 211.744 269.065 212.511 271.65 212.511ZM71.9041 284.727V372H51.0661V284.727H71.9041ZM127.398 343.747V306.545H148.193V372H128.335V359.812H127.653C126.205 363.818 123.733 367 120.239 369.358C116.773 371.687 112.582 372.852 107.668 372.852C103.207 372.852 99.2869 371.83 95.9062 369.784C92.5256 367.739 89.8977 364.884 88.0227 361.219C86.1477 357.526 85.196 353.207 85.1676 348.264V306.545H106.006V344.173C106.034 347.724 106.972 350.523 108.818 352.568C110.665 354.614 113.179 355.636 116.361 355.636C118.435 355.636 120.295 355.182 121.943 354.273C123.619 353.335 124.94 351.986 125.906 350.224C126.901 348.435 127.398 346.276 127.398 343.747ZM173.175 373.236C170.107 373.236 167.479 372.156 165.292 369.997C163.133 367.838 162.067 365.224 162.096 362.156C162.067 359.145 163.133 356.574 165.292 354.443C167.479 352.284 170.107 351.205 173.175 351.205C176.073 351.205 178.63 352.284 180.846 354.443C183.09 356.574 184.227 359.145 184.255 362.156C184.227 364.202 183.687 366.062 182.636 367.739C181.613 369.415 180.263 370.75 178.587 371.744C176.94 372.739 175.136 373.236 173.175 373.236ZM198.019 372V306.545H218.857V372H198.019ZM208.46 298.918C205.533 298.918 203.019 297.952 200.917 296.02C198.815 294.06 197.763 291.702 197.763 288.946C197.763 286.219 198.815 283.889 200.917 281.957C203.019 279.997 205.533 279.017 208.46 279.017C211.414 279.017 213.928 279.997 216.002 281.957C218.104 283.889 219.156 286.219 219.156 288.946C219.156 291.702 218.104 294.06 216.002 296.02C213.928 297.952 211.414 298.918 208.46 298.918ZM289.266 326.531L270.132 327.043C269.933 325.679 269.393 324.472 268.513 323.42C267.632 322.341 266.482 321.503 265.061 320.906C263.669 320.281 262.05 319.969 260.203 319.969C257.788 319.969 255.729 320.452 254.024 321.418C252.348 322.384 251.524 323.69 251.553 325.338C251.524 326.616 252.036 327.724 253.087 328.662C254.166 329.599 256.084 330.352 258.839 330.92L271.453 333.307C277.987 334.557 282.845 336.631 286.027 339.528C289.237 342.426 290.857 346.261 290.885 351.034C290.857 355.523 289.521 359.429 286.879 362.753C284.266 366.077 280.686 368.662 276.141 370.509C271.595 372.327 266.396 373.236 260.544 373.236C251.197 373.236 243.825 371.318 238.428 367.483C233.058 363.619 229.99 358.449 229.223 351.972L249.805 351.46C250.26 353.847 251.439 355.665 253.342 356.915C255.246 358.165 257.675 358.79 260.629 358.79C263.3 358.79 265.473 358.293 267.149 357.298C268.825 356.304 269.678 354.983 269.706 353.335C269.678 351.858 269.024 350.679 267.746 349.798C266.467 348.889 264.464 348.179 261.737 347.668L250.317 345.494C243.754 344.301 238.868 342.099 235.658 338.889C232.447 335.651 230.857 331.531 230.885 326.531C230.857 322.156 232.021 318.42 234.379 315.324C236.737 312.199 240.089 309.812 244.436 308.165C248.783 306.517 253.911 305.693 259.82 305.693C268.683 305.693 275.672 307.554 280.786 311.276C285.899 314.969 288.726 320.054 289.266 326.531Z" fill="white"/>
<path d="M380.901 301.637V296.905C380.901 283.825 381.978 273.399 384.133 265.628C386.364 257.857 389.595 251.625 393.827 246.931C398.059 242.161 403.214 237.814 409.292 233.89C414.14 230.812 418.448 227.696 422.219 224.542C426.066 221.31 429.105 217.848 431.336 214.154C433.567 210.461 434.683 206.268 434.683 201.575C434.683 197.035 433.606 193.034 431.451 189.572C429.297 186.109 426.335 183.455 422.565 181.608C418.872 179.685 414.755 178.723 410.216 178.723C405.676 178.723 401.406 179.762 397.405 181.839C393.481 183.917 390.249 186.879 387.71 190.726C385.248 194.496 383.979 199.074 383.902 204.46H330.812C331.043 188.302 334.775 175.068 342.007 164.758C349.317 154.448 358.973 146.831 370.976 141.907C382.978 136.905 396.212 134.405 410.677 134.405C426.527 134.405 440.607 136.867 452.918 141.791C465.306 146.715 475.039 153.986 482.117 163.604C489.196 173.222 492.735 184.994 492.735 198.92C492.735 208.076 491.196 216.155 488.119 223.157C485.041 230.158 480.732 236.352 475.193 241.738C469.73 247.047 463.305 251.894 455.919 256.28C450.148 259.665 445.339 263.205 441.492 266.898C437.722 270.591 434.875 274.823 432.952 279.593C431.028 284.286 430.067 290.057 430.067 296.905V301.637H380.901ZM406.407 377.347C398.097 377.347 390.98 374.423 385.056 368.576C379.208 362.728 376.323 355.65 376.4 347.34C376.323 339.184 379.208 332.221 385.056 326.45C390.98 320.603 398.097 317.679 406.407 317.679C414.332 317.679 421.295 320.603 427.297 326.45C433.298 332.221 436.337 339.184 436.414 347.34C436.337 352.88 434.875 357.919 432.029 362.459C429.259 366.998 425.604 370.615 421.064 373.308C416.602 376 411.716 377.347 406.407 377.347Z"/>
</svg>
