<svg width="214" height="214" viewBox="0 0 214 214" fill="none" xmlns="http://www.w3.org/2000/svg">
    <path
        d="M107 164.067C160.842 164.067 204.489 145.969 204.489 123.644C204.489 101.32 160.842 83.2222 107 83.2222C53.1584 83.2222 9.51111 101.32 9.51111 123.644C9.51111 145.969 53.1584 164.067 107 164.067Z"
        fill="#840031" />
    <path
        d="M107 156.933C160.842 156.933 204.489 138.836 204.489 116.511C204.489 94.1865 160.842 76.0889 107 76.0889C53.1584 76.0889 9.51111 94.1865 9.51111 116.511C9.51111 138.836 53.1584 156.933 107 156.933Z"
        fill="#C01252" />
    <path
        d="M75.6628 166.102C74.486 167.504 72.2329 167.106 71.6068 165.387L70.1982 161.517C69.5721 159.796 71.043 158.044 72.8456 158.362L76.9014 159.077C78.704 159.395 79.4865 161.545 78.31 162.947L75.6628 166.102Z"
        fill="#840031" />
    <path
        d="M143.479 165.387C142.853 167.107 140.6 167.504 139.423 166.102L136.776 162.947C135.599 161.545 136.382 159.395 138.185 159.077L142.24 158.362C144.043 158.044 145.514 159.797 144.888 161.517L143.479 165.387Z"
        fill="#840031" />
    <path
        d="M140.288 115.931C140.288 124.131 125.385 130.778 107 130.778C88.6155 130.778 73.5525 124.13 73.7118 115.931C74.9007 54.6888 91.51 54.6888 109.895 54.6888C128.279 54.6888 140.288 54.6888 140.288 115.931Z"
        fill="#58DAA6" />
    <mask id="mask0_571_289" style="mask-type:alpha" maskUnits="userSpaceOnUse" x="73" y="54"
        width="68" height="77">
        <path
            d="M140.288 115.931C140.288 124.131 125.385 130.778 107 130.778C88.6155 130.778 73.5525 124.13 73.7118 115.931C74.9007 54.6888 91.51 54.6888 109.895 54.6888C128.279 54.6888 140.288 54.6888 140.288 115.931Z"
            fill="#58DAA6" fill-opacity="0.52" />
    </mask>
    <g mask="url(#mask0_571_289)">
        <path
            d="M95.7372 116.277C95.7372 116.277 92.253 122.078 94.9513 128.209L99.3557 129.045C99.3557 129.045 98.1228 122.413 98.2969 121.938C98.4707 121.463 96.7061 116.61 96.6412 116.277C96.5761 115.944 95.7372 116.277 95.7372 116.277Z"
            fill="white" />
        <path
            d="M99.3557 129.542C99.3271 129.542 99.2986 129.539 99.2701 129.534L94.8657 128.698C94.7121 128.669 94.582 128.564 94.5171 128.416C93.0655 125.118 93.3634 121.923 93.8692 119.823C94.4149 117.557 95.2949 116.076 95.3322 116.014C95.3874 115.922 95.4699 115.851 95.5672 115.813C95.8687 115.693 96.4286 115.524 96.7924 115.732C96.9591 115.827 97.0718 115.986 97.1094 116.178C97.1296 116.263 97.2939 116.749 97.4525 117.219C98.659 120.793 98.867 121.668 98.7581 122.068C98.7187 122.573 99.266 125.945 99.8246 128.951C99.8545 129.112 99.8063 129.278 99.6952 129.395C99.6046 129.49 99.4822 129.542 99.3557 129.542ZM95.2854 127.768L98.7551 128.426C97.7614 122.997 97.7783 122.066 97.8313 121.825C97.8204 121.307 96.9004 118.583 96.5513 117.549C96.3961 117.089 96.3038 116.814 96.2486 116.641C96.1916 116.653 96.1255 116.669 96.0596 116.689C95.5679 117.604 93.1368 122.575 95.2854 127.768Z"
            fill="black" />
        <path
            d="M98.2969 129.892C98.2969 129.892 93.4557 130.579 93.2317 129.703C92.7107 127.665 95.9847 125.789 97.9271 127.9"
            fill="white" />
        <path
            d="M98.3615 130.385C97.2007 130.596 93.781 131.098 92.9366 130.202C92.8584 130.118 92.7769 129.995 92.7383 129.843L92.7043 129.653C92.5973 129.036 92.8125 128.366 93.1523 127.901C93.6726 127.179 94.5502 126.756 95.3957 126.893C95.4621 126.905 95.5063 126.97 95.4949 127.039C95.4882 127.079 95.4645 127.112 95.4324 127.129C95.099 127.329 94.8072 127.521 94.5507 127.742C94.0452 128.169 93.5477 128.781 93.7061 129.468L93.7256 129.565C93.712 129.507 93.6842 129.468 93.6711 129.453C93.9893 129.563 94.5345 129.587 94.9385 129.588C96.0311 129.582 97.1398 129.482 98.2324 129.4C98.8364 129.359 98.9531 130.254 98.3615 130.385Z"
            fill="black" />
        <path
            d="M116.88 126.059C121.81 131.441 131.383 130.343 134.233 124.447C134.805 123.266 135.107 121.893 135.047 120.34C134.66 110.903 126.526 108.076 124.03 115.213C122.995 118.39 125.337 119.096 126.495 117.642C128.813 114.927 130.821 117.491 130.733 121.298C130.699 121.98 130.588 122.59 130.408 123.137C128.849 127.948 122.188 127.658 118.023 124.59L116.88 126.059Z"
            fill="white" />
        <path fill-rule="evenodd" clip-rule="evenodd"
            d="M116.88 126.059C120.694 130.224 127.29 130.508 131.398 127.691L131.404 127.687C132.604 126.866 133.59 125.779 134.233 124.447C132.328 125.029 131.092 124.031 130.408 123.137C129.266 126.663 125.379 127.449 121.747 126.407C120.425 126.029 119.135 125.409 118.023 124.59L116.88 126.059Z"
            fill="white" />
        <path fill-rule="evenodd" clip-rule="evenodd"
            d="M116.88 126.059C120.694 130.224 127.29 130.508 131.398 127.691C125.501 130.538 121.778 126.481 121.778 126.481L121.747 126.407C120.425 126.03 119.135 125.409 118.023 124.59L116.88 126.059Z"
            fill="black" />
        <path
            d="M125.126 130.039C124.41 130.039 123.692 129.979 122.983 129.855C120.428 129.412 118.199 128.218 116.536 126.402C116.353 126.204 116.361 125.889 116.552 125.7C116.743 125.51 117.045 125.518 117.227 125.717C120.596 129.394 126.001 129.714 129.598 128.129C132.891 126.678 134.704 123.847 134.571 120.359C134.35 115.003 131.639 112.143 129.214 111.754C127.16 111.424 125.392 112.779 124.481 115.378C124.03 116.768 124.312 117.521 124.727 117.763C125.143 118.005 125.733 117.821 126.128 117.324C126.131 117.32 126.135 117.316 126.138 117.312C127.441 115.785 128.554 115.934 129.102 116.158C130.442 116.707 131.27 118.729 131.211 121.309C131.211 121.314 131.21 121.318 131.21 121.323C131.051 124.444 129.412 125.908 128.065 126.587C125.258 128.001 120.919 127.331 117.746 124.994C117.531 124.836 117.48 124.526 117.633 124.302C117.785 124.078 118.083 124.025 118.298 124.183C121.204 126.323 125.136 126.958 127.649 125.692C129.246 124.887 130.148 123.361 130.256 121.278C130.302 119.222 129.669 117.459 128.752 117.083C128.056 116.798 127.339 117.404 126.858 117.966C126.168 118.826 125.078 119.105 124.261 118.63C123.896 118.419 122.77 117.535 123.578 115.054L123.582 115.044C124.643 112.007 126.857 110.37 129.36 110.772C132.158 111.221 135.282 114.4 135.525 120.318C135.603 122.36 135.102 124.187 134.036 125.75C133.077 127.156 131.671 128.295 129.971 129.044C128.478 129.702 126.81 130.039 125.126 130.039Z"
            fill="black" />
        <path
            d="M96.451 106.836L100.685 129.719C106.625 130.105 111.985 130.153 116.802 129.884C118.483 126.338 119.288 123.044 119.227 120.334C119.171 117.774 118.346 115.734 116.758 114.499C115.793 111.933 114.001 107.837 112.994 105.567C112.547 104.563 112.254 103.915 112.254 103.915L96.5887 103.526L96.451 106.836Z"
            fill="white" />
        <path
            d="M117.385 127.423C117.385 127.423 118.273 124.281 118.458 122.942C118.458 122.942 117.854 124.717 115.943 125.183C114.031 125.648 113.37 122.07 113.37 122.07C113.37 122.07 111.182 127.882 111.367 128.258C111.551 128.635 111.899 129.123 111.921 129.035C111.942 128.946 114.188 126.987 115.459 127.186C116.731 127.386 117.365 127.926 117.365 127.926L117.385 127.423Z"
            fill="#DBDBDB" />
        <path
            d="M106.209 129.543C106.209 129.543 105.854 125.976 105.691 124.379C105.527 122.782 107.241 111.88 104.702 111.509C102.163 111.139 103.203 117.458 103.301 122.046C103.4 126.633 103.137 128.717 102.875 129.33C102.613 129.944 106.417 130.006 106.209 129.543Z"
            fill="#DBDBDB" />
        <path
            d="M112.946 105.071L113.666 107.092C107.28 106.217 101.237 106.075 95.7374 107.092L96.8776 103.979L112.255 103.916L112.946 105.071Z"
            fill="#DBDBDB" />
        <path fill-rule="evenodd" clip-rule="evenodd"
            d="M112.793 105.544C112.793 105.544 112.807 105.615 112.831 105.748C113.074 107.031 114.35 113.947 114.372 116.505C114.372 116.609 114.372 116.702 114.368 116.79C114.274 119.237 117.052 116.257 119.227 120.334C119.187 118.489 118.747 116.913 117.91 115.716C117.585 115.253 117.201 114.845 116.758 114.499C115.803 111.959 114.035 107.917 113.025 105.635C113.013 105.613 113.003 105.589 112.994 105.567L112.793 105.544Z"
            fill="white" />
        <path fill-rule="evenodd" clip-rule="evenodd"
            d="M112.832 105.748C113.074 107.03 114.351 113.946 114.372 116.505C114.718 116.058 115.084 115.219 115.722 114.962C116.632 114.596 117.914 115.914 117.914 115.914L117.91 115.716C117.585 115.253 117.201 114.845 116.758 114.499C115.803 111.958 114.035 107.917 113.025 105.635C112.954 105.667 112.891 105.704 112.832 105.748Z"
            fill="black" />
        <path
            d="M110.478 130.549C107.37 130.549 104.086 130.438 100.656 130.214C100.438 130.2 100.258 130.035 100.216 129.812L95.9814 106.929C95.9742 106.891 95.9714 106.852 95.9731 106.813L96.111 103.504C96.1221 103.233 96.338 103.024 96.5996 103.028L112.266 103.419C112.447 103.424 112.61 103.534 112.687 103.704C112.718 103.772 115.749 110.485 117.155 114.19C118.814 115.545 119.697 117.743 119.709 120.556C119.721 123.357 118.864 126.659 117.231 130.103C117.155 130.265 117 130.37 116.828 130.38C114.807 130.493 112.687 130.549 110.478 130.549ZM101.085 129.246C106.662 129.597 111.844 129.65 116.497 129.403C117.985 126.191 118.765 123.139 118.754 120.561C118.742 118.01 117.954 116.051 116.473 114.898C116.401 114.843 116.347 114.767 116.314 114.681C115.101 111.456 112.542 105.729 111.947 104.405L97.0452 104.034L96.9301 106.798L101.085 129.246Z"
            fill="black" />
        <path
            d="M97.2884 129.54C97.384 130.991 101.905 131.001 102.795 129.944C102.894 129.824 102.984 129.661 103.064 129.461C103.702 127.864 103.208 124.092 103.212 121.045L103.397 119.952L97.9209 106.774L96.9177 104.363L96.7591 103.979C96.5356 104.838 96.335 105.661 96.1554 106.448C96.1057 106.659 96.0598 106.867 96.0139 107.074C93.9103 116.67 95.0814 121.232 98.1979 128.005C98.1979 128.005 97.1948 128.089 97.2884 129.54Z"
            fill="white" />
        <path
            d="M102.883 129.461C103.521 127.864 103.257 123.911 103.261 120.864L103.215 119.952C103.25 120.6 103.286 121.3 103.301 122.046C103.4 126.632 103.137 128.717 102.875 129.33C102.854 129.377 102.86 129.421 102.883 129.461Z"
            fill="#DBDBDB" />
        <path
            d="M95.7365 107.092C95.769 107.086 95.7995 107.08 95.8321 107.074C96.4607 106.961 97.2787 106.861 97.9207 106.774L96.9175 104.363L95.9733 106.448L95.7365 107.092Z"
            fill="#DBDBDB" />
        <path
            d="M97.039 104.108C94.6738 113.379 94.2018 119.014 98.4464 127.79C98.4462 127.79 98.0536 128.5 98.0536 128.5C98.0695 128.499 98.0624 128.499 98.0631 128.499C97.6501 128.58 97.5595 129.087 97.5904 129.478C97.6375 129.896 98.678 130.09 99.0361 130.134C99.9244 130.243 101.568 130.215 102.251 129.618C102.365 129.386 102.411 129.052 102.452 128.759C102.54 128.054 102.569 127.34 102.594 126.623C102.657 123.71 102.649 120.784 102.666 117.866C102.673 116.887 102.681 115.91 102.726 114.931C102.73 114.853 102.794 114.793 102.869 114.797C102.939 114.801 102.994 114.86 102.998 114.931C103.102 116.874 103.265 118.822 103.372 120.772C103.461 122.511 103.914 129.175 102.961 130.288C101.917 131.424 98.659 131.42 97.3945 130.684C96.9815 130.464 96.6051 130.008 96.6191 129.481C96.5573 128.581 97.0247 127.624 97.9759 127.509C97.9811 127.507 97.5835 128.219 97.5847 128.219C96.7244 126.348 95.9089 124.433 95.3066 122.422C94.0468 118.408 94.0837 114.05 94.7932 109.936C95.1325 107.882 95.5976 105.857 96.1169 103.848C96.2936 103.23 97.186 103.452 97.039 104.108Z"
            fill="black" />
        <path
            d="M97.958 127.511C99.1747 127.526 100.383 127.827 101.485 128.352C101.589 128.4 101.534 128.569 101.423 128.54C100.325 128.295 99.1714 128.263 98.0729 128.498C97.3614 128.648 97.2311 127.545 97.958 127.511Z"
            fill="black" />
        <path
            d="M105.588 123.55C105.628 124.324 105.349 125.101 105.434 125.837L105.738 125.742C105.916 127.285 105.881 128.749 106.209 129.542C106.295 129.749 106.385 129.918 106.479 130.039C107.319 131.141 111.836 131.357 111.997 129.912C112.159 128.467 111.16 128.334 111.16 128.334C113.391 123.705 113.871 119.344 113.989 114.962L105.794 120.326L105.943 120.404C105.903 121.293 105.542 122.562 105.588 123.55Z"
            fill="white" />
        <path
            d="M106.209 129.542C106.209 129.542 105.739 127.525 105.433 125.841C105.611 127.383 105.88 128.749 106.209 129.542Z"
            fill="#DBDBDB" />
        <path
            d="M105.248 123.55C105.349 122.733 105.594 121.553 105.794 120.326L105.235 120.692C105.195 121.58 105.202 122.562 105.248 123.55Z"
            fill="#DBDBDB" />
        <path
            d="M113.683 110.41C115.215 116.315 114.264 123.146 111.588 128.556L111.222 127.84C111.267 127.847 111.276 127.849 111.312 127.857C112.245 128.084 112.6 129.078 112.479 129.967C112.434 130.467 112.044 130.857 111.644 131.047C110.346 131.708 107.125 131.55 106.125 130.379C106.08 130.324 106.03 130.244 105.998 130.18C105.801 129.773 105.75 129.37 105.682 128.956C105.575 128.21 105.526 127.459 105.489 126.713C105.345 123.751 105.49 120.812 105.652 117.863C105.709 116.883 105.781 115.903 105.87 114.925C105.877 114.847 105.944 114.79 106.018 114.797C106.088 114.804 106.141 114.866 106.141 114.938C106.158 117.874 106.206 120.81 106.314 123.742C106.373 125.198 106.403 126.655 106.543 128.101C106.608 128.639 106.646 129.247 106.854 129.73C107.586 130.446 109.694 130.538 110.662 130.321C110.953 130.257 111.427 130.121 111.513 129.858C111.531 129.722 111.535 129.569 111.522 129.439C111.49 129.13 111.363 128.901 111.09 128.824C111.091 128.824 111.083 128.823 111.099 128.826L110.734 128.11C111.963 125.387 112.817 122.487 113.289 119.518C113.522 118.031 113.652 116.523 113.664 115.016C113.675 113.503 113.559 111.991 113.311 110.498C113.292 110.389 113.363 110.286 113.467 110.268C113.564 110.25 113.657 110.313 113.683 110.41Z"
            fill="black" />
        <path
            d="M111.081 128.822C109.994 128.533 108.84 128.507 107.732 128.697C107.621 128.72 107.571 128.549 107.679 128.506C108.804 128.037 110.025 127.796 111.241 127.843C111.964 127.913 111.786 129.006 111.081 128.822Z"
            fill="black" />
        <path
            d="M112.793 129.892C112.793 129.892 117.635 130.579 117.859 129.703C118.379 127.665 115.106 125.789 113.163 127.9"
            fill="white" />
        <path
            d="M112.858 129.4C113.814 129.485 114.787 129.564 115.735 129.585C116.27 129.582 116.856 129.606 117.356 129.452C117.389 129.44 117.417 129.424 117.417 129.424C117.423 129.422 117.398 129.432 117.365 129.494C117.359 129.509 117.349 129.527 117.345 129.547C117.369 129.46 117.4 129.228 117.374 129.088C117.333 128.741 117.123 128.391 116.828 128.111C116.051 127.368 114.846 127.25 113.877 127.657C113.664 127.743 113.459 127.862 113.24 127.986C113.141 128.048 113.02 127.918 113.08 127.817C113.623 126.788 114.868 126.33 115.949 126.576C117.394 126.852 118.791 128.245 118.366 129.88C118.065 130.818 116.439 130.7 115.711 130.704C114.702 130.671 113.722 130.559 112.729 130.385C112.131 130.259 112.25 129.353 112.858 129.4Z"
            fill="black" />
        <g id='head'>
            <path
                d="M90.7034 99.6146C90.819 99.9233 90.9674 100.229 91.1443 100.53C91.1457 100.533 91.1471 100.536 91.1483 100.538C92.4808 102.786 95.4832 104.736 99.6384 105.373C99.6441 105.375 99.6512 105.375 99.6584 105.376C99.7525 105.391 99.8467 105.404 99.9409 105.416C100.044 105.429 100.146 105.443 100.25 105.456C101.42 105.539 102.59 105.582 103.759 105.582C104.929 105.582 106.099 105.539 107.268 105.456C107.373 105.443 107.475 105.429 107.578 105.416C107.672 105.404 107.766 105.391 107.86 105.376C107.867 105.375 107.875 105.375 107.88 105.373C108.472 105.283 109.04 105.165 109.583 105.023C112.857 104.175 115.226 102.467 116.369 100.539C116.549 100.236 116.698 99.9264 116.815 99.6146C117.302 98.3295 117.248 96.9953 116.567 95.7826C116.29 92.151 115.463 89.2661 114.051 87.0785C114.054 86.948 114.172 80.489 112.97 79.2066C111.753 77.9112 107.03 82.2906 107.03 82.2906L107 82.2833C105.935 82.025 104.848 81.8945 103.759 81.8945C102.671 81.8945 101.584 82.025 100.519 82.2833L100.489 82.2906C100.489 82.2906 95.7657 77.9112 94.549 79.2066C93.3466 80.489 93.465 86.9463 93.4678 87.0769C92.0557 89.2644 91.2284 92.151 90.9517 95.7826C90.2711 96.9953 90.2169 98.3295 90.7034 99.6146Z"
                fill="white" />
            <path
                d="M105.226 100.414C104.292 100.643 103.311 100.624 102.294 100.414C102.294 101.732 105.226 101.732 105.226 100.414Z"
                fill="#DBDBDB" />
            <path
                d="M91.1826 99.0851C91.5663 101.541 94.3978 103.374 97.9352 105.023C98.4788 105.165 99.0463 105.283 99.6384 105.373C99.6441 105.375 99.6512 105.375 99.6584 105.376C99.7525 105.391 99.8467 105.404 99.9409 105.416C100.044 105.429 100.146 105.443 100.25 105.456C101.42 105.539 102.59 105.582 103.759 105.582C104.929 105.582 106.099 105.539 107.268 105.456C107.372 105.443 107.475 105.429 107.578 105.416C107.672 105.404 107.766 105.391 107.86 105.376C107.867 105.375 107.875 105.375 107.88 105.373C108.472 105.283 109.04 105.165 109.583 105.023C113.121 103.374 115.952 101.541 116.336 99.0851C113.6 102.227 109.843 103.81 103.759 103.81C97.875 103.81 93.9184 102.227 91.1826 99.0851Z"
                fill="#DBDBDB" />
            <path fill-rule="evenodd" clip-rule="evenodd"
                d="M90.7034 99.6146C90.819 99.9233 90.9674 100.229 91.1443 100.53C91.1457 100.533 91.1471 100.536 91.1485 100.538C89.9516 97.3351 91.6605 95.3641 94.1681 97.3351C97.0252 99.1576 99.3191 99.3714 101.085 98.0876C102.226 97.4226 102.137 94.9768 102.664 93.4467C103.029 92.3826 104.49 92.3826 104.855 93.4467C105.381 94.9768 105.293 97.4226 106.434 98.0876C108.2 99.3712 110.493 99.1576 113.351 97.3351C115.858 95.3641 117.567 97.3351 116.369 100.539C116.549 100.236 116.698 99.9264 116.815 99.6146C117.302 98.3295 117.248 96.9953 116.567 95.7826C116.29 92.151 115.463 89.2661 114.051 87.0785C114.054 86.948 114.172 80.489 112.97 79.2066C111.753 77.9112 107.03 82.2906 107.03 82.2906L107 82.2833C105.935 82.025 104.848 81.8945 103.759 81.8945C102.671 81.8945 101.584 82.025 100.519 82.2833L100.489 82.2906C100.489 82.2906 95.7657 77.9112 94.549 79.2066C93.3466 80.489 93.465 86.9463 93.4678 87.0769C92.0557 89.2644 91.2282 92.151 90.9517 95.7826C90.2711 96.9953 90.2169 98.3295 90.7034 99.6146Z"
                fill="white" />
            <path fill-rule="evenodd" clip-rule="evenodd"
                d="M104.665 81.9406C104.665 87.3374 102.855 87.3374 102.855 81.9406H104.665Z"
                fill="black" />
            <path fill-rule="evenodd" clip-rule="evenodd"
                d="M106.059 82.2573C106.059 82.2573 105.338 85.7897 106.059 85.26C106.781 84.7302 107.03 82.2911 107.03 82.2911L106.059 82.2573Z"
                fill="black" />
            <path fill-rule="evenodd" clip-rule="evenodd"
                d="M101.46 82.2573C101.46 82.2573 102.182 85.7897 101.46 85.26C100.739 84.7302 100.49 82.2911 100.49 82.2911L101.46 82.2573Z"
                fill="black" />
            <g opacity="0.48">
                <path
                    d="M93.4662 86.9047C93.4861 84.9904 93.6388 81.0604 94.549 80.0898C95.7657 78.7941 100.488 83.1737 100.488 83.1737L100.518 83.1664C101.584 82.9081 102.671 82.7776 103.759 82.7776C104.848 82.7776 105.935 82.9081 107 83.1664L107.03 83.1737C107.03 83.1737 111.753 78.7941 112.97 80.0898C113.881 81.0604 114.034 84.9963 114.054 86.9092C114.064 85.8718 114.068 80.3791 112.97 79.2066C111.753 77.9112 107.03 82.2906 107.03 82.2906L107 82.2833C105.935 82.025 104.848 81.8945 103.759 81.8945C102.671 81.8945 101.584 82.025 100.518 82.2833L100.488 82.2906C100.488 82.2906 95.7657 77.9112 94.549 79.2066C93.4519 80.3763 93.455 85.854 93.4662 86.9047Z"
                    fill="white" />
            </g>
            <g opacity="0.37">
                <path
                    d="M114.051 87.0795C114.052 87.0812 114.052 87.0826 114.054 87.0841V86.9539C114.052 87.0258 114.051 87.0704 114.051 87.0795Z"
                    fill="white" />
            </g>
            <g opacity="0.37">
                <path
                    d="M93.465 87.0862C93.4664 87.0848 93.4664 87.0831 93.4681 87.0817C93.4681 87.0712 93.4664 87.0239 93.4664 86.9448C93.465 86.9936 93.465 87.0406 93.465 87.0862Z"
                    fill="white" />
            </g>
            <path
                d="M102.699 97.091C102.699 97.3797 103.174 98.0036 103.76 98.0036C104.346 98.0036 104.821 97.3797 104.821 97.091C104.821 96.8026 104.346 96.6614 103.76 96.6614C103.174 96.6614 102.699 96.8026 102.699 97.091Z"
                fill="black" />
            <path
                d="M103.994 97.5193L103.865 98.3693C103.848 98.492 103.672 98.4906 103.655 98.3693L103.526 97.5193C103.489 97.1436 104.031 97.1434 103.994 97.5193Z"
                fill="black" />
            <path
                d="M103.848 98.5437C104.536 99.3217 105.646 99.7861 106.567 99.1643C106.663 99.0956 106.782 99.2249 106.713 99.3212C105.873 100.45 104.107 99.8845 103.671 98.66C103.628 98.5482 103.771 98.4548 103.848 98.5437Z"
                fill="black" />
            <path
                d="M103.876 98.6782C103.595 99.6086 102.483 100.241 101.554 99.9258C101.241 99.825 100.956 99.6215 100.784 99.3454C100.742 99.2777 100.761 99.1868 100.827 99.1431C100.873 99.1117 100.93 99.1129 100.975 99.1402C101.422 99.3908 101.894 99.4412 102.37 99.3128C102.858 99.1795 103.255 98.8841 103.644 98.5258C103.747 98.4195 103.924 98.5372 103.876 98.6782Z"
                fill="black" />
            <path
                d="M109.02 97.3357C110.103 97.3357 110.98 96.2961 110.98 95.0141C110.98 93.7317 110.103 92.6924 109.02 92.6924C107.938 92.6924 107.061 93.7317 107.061 95.0141C107.061 96.2961 107.938 97.3357 109.02 97.3357Z"
                fill="black" />
            <path
                d="M108.171 95.185C108.454 95.185 108.684 94.8888 108.684 94.5233C108.684 94.1578 108.454 93.8616 108.171 93.8616C107.887 93.8616 107.658 94.1578 107.658 94.5233C107.658 94.8888 107.887 95.185 108.171 95.185Z"
                fill="white" />
            <g opacity="0.37">
                <path
                    d="M109.572 96.5513C109.763 96.5513 109.919 96.3829 109.919 96.1754C109.919 95.9678 109.763 95.7994 109.572 95.7994C109.38 95.7994 109.224 95.9678 109.224 96.1754C109.224 96.3829 109.38 96.5513 109.572 96.5513Z"
                    fill="white" />
            </g>
            <path
                d="M98.4994 97.3357C99.5816 97.3357 100.459 96.2961 100.459 95.0141C100.459 93.7317 99.5816 92.6924 98.4994 92.6924C97.4173 92.6924 96.5402 93.7317 96.5402 95.0141C96.5402 96.2961 97.4173 97.3357 98.4994 97.3357Z"
                fill="black" />
            <path
                d="M99.3488 95.185C99.6325 95.185 99.8624 94.8888 99.8624 94.5233C99.8624 94.1578 99.6325 93.8616 99.3488 93.8616C99.0654 93.8616 98.8354 94.1578 98.8354 94.5233C98.8354 94.8888 99.0654 95.185 99.3488 95.185Z"
                fill="white" />
            <g opacity="0.37">
                <path
                    d="M97.9483 96.5513C98.1402 96.5513 98.2957 96.3829 98.2957 96.1754C98.2957 95.9678 98.1402 95.7994 97.9483 95.7994C97.7564 95.7994 97.6009 95.9678 97.6009 96.1754C97.6009 96.3829 97.7564 96.5513 97.9483 96.5513Z"
                    fill="white" />
            </g>
            <path
                d="M108.185 87.6154C107.026 87.5324 106.934 88.9127 108.093 88.9957C108.705 89.0587 109.242 89.161 109.704 89.3024C109.704 89.3024 109.62 87.9909 108.185 87.6154Z"
                fill="black" />
            <path
                d="M99.3352 87.6154C100.494 87.5324 100.585 88.9127 99.4263 88.9957C98.8145 89.0587 98.2774 89.161 97.8161 89.3024C97.8161 89.3024 97.8995 87.9909 99.3352 87.6154Z"
                fill="black" />
            <path
                d="M109.877 83.3209C110.847 83.8091 111.709 84.4161 112.466 85.1447C112.663 84.0064 112.408 81.3336 111.909 81.2667C111.466 81.209 110.315 82.7198 109.877 83.3209Z"
                fill="#FFA6CA" />
            <path
                d="M112.466 85.4759C112.387 85.4759 112.31 85.4452 112.25 85.3877C111.52 84.6853 110.675 84.0901 109.738 83.6188C109.653 83.5756 109.59 83.4945 109.568 83.3979C109.545 83.3014 109.566 83.1996 109.623 83.1205C111.277 80.8504 111.765 80.9139 111.948 80.9379C112.096 80.9576 112.224 81.0444 112.331 81.1959C112.804 81.8669 112.956 84.1852 112.779 85.2032C112.759 85.3223 112.678 85.4202 112.567 85.4585C112.534 85.4702 112.5 85.4759 112.466 85.4759ZM110.365 83.2056C111.029 83.5691 111.647 83.9941 112.211 84.4744C112.251 83.3998 112.056 81.9489 111.839 81.6149C111.639 81.7142 111.136 82.1843 110.365 83.2056Z"
                fill="black" />
            <path
                d="M97.6413 83.3209C96.6714 83.8091 95.8097 84.4161 95.0524 85.1447C94.8555 84.0064 95.1109 81.3336 95.6102 81.2667C96.0522 81.209 97.2033 82.7198 97.6413 83.3209Z"
                fill="#FFA6CA" />
            <path
                d="M95.0524 85.4761C95.0186 85.4761 94.9844 85.4707 94.9513 85.459C94.841 85.4205 94.7597 85.3225 94.7392 85.2037C94.563 84.1855 94.715 81.8672 95.1874 81.1964C95.2942 81.0449 95.4228 80.9581 95.5695 80.9384C95.7543 80.9144 96.241 80.8504 97.8952 83.121C97.9528 83.1999 97.9732 83.3019 97.9509 83.3984C97.9288 83.4947 97.866 83.5758 97.7802 83.6191C96.844 84.0904 95.999 84.6855 95.2688 85.3882C95.2088 85.4457 95.1313 85.4761 95.0524 85.4761ZM95.6792 81.6151C95.4623 81.9492 95.268 83.4003 95.308 84.4746C95.8718 83.9943 96.4897 83.5694 97.1539 83.2058C96.3825 82.1846 95.8798 81.7145 95.6792 81.6151Z"
                fill="black" />
            <path
                d="M100.234 105.595C99.1162 105.706 97.9269 105.552 96.791 105.21C96.3485 105.081 95.8601 104.901 95.4361 104.722C95.1948 104.604 94.7987 104.433 94.568 104.295C92.186 102.988 89.7266 100.6 89.9199 97.5612C89.972 96.8438 90.1958 96.1433 90.5391 95.5322L90.4754 95.7434C90.5971 94.1938 90.8197 92.6423 91.223 91.1259C91.6258 89.6127 92.2176 88.1309 93.0712 86.8015L92.9901 87.0785L92.9859 86.6015C92.9927 84.8179 93.0467 83.0394 93.3297 81.272C93.5213 80.2861 93.7772 78.6245 94.9632 78.4847C96.6526 78.2893 99.5316 80.79 100.806 81.9199L100.378 81.8074C101.487 81.5361 102.621 81.3977 103.759 81.3977C104.898 81.3977 106.032 81.5361 107.141 81.8074L106.712 81.9199C108.058 80.7267 110.239 78.8692 111.956 78.5078C113.211 78.2572 113.693 79.1895 113.983 80.2911C114.378 81.8838 114.455 83.5223 114.514 85.1513C114.536 85.7705 114.534 86.4562 114.529 87.0785L114.447 86.8015C116.144 89.452 116.796 92.6297 117.043 95.7419C117.044 95.7493 116.98 95.5322 116.98 95.5322C118.59 98.4469 116.899 101.415 114.585 103.23C112.658 104.753 110.08 105.637 107.761 105.628C107.605 105.631 107.441 105.62 107.287 105.613C107.115 105.601 107.091 105.351 107.25 105.3C107.445 105.239 107.648 105.172 107.844 105.118C109.313 104.674 110.726 104.22 112.083 103.546C113.391 102.901 114.679 102.046 115.575 100.849C116.259 99.9344 116.74 98.8007 116.646 97.6389C116.605 97.0763 116.432 96.5292 116.155 96.0332C116.117 95.9659 116.096 95.8939 116.091 95.8206C115.973 94.3195 115.757 92.8282 115.375 91.3913C114.993 89.9566 114.438 88.5758 113.654 87.3555C113.599 87.2713 113.572 87.1738 113.573 87.0785C113.576 86.4669 113.58 85.7902 113.559 85.1803C113.521 83.9322 113.448 82.668 113.248 81.4429C113.153 80.8799 113.024 80.2607 112.777 79.7751C112.677 79.6294 112.637 79.4855 112.436 79.4706C111.077 79.4199 108.412 81.7111 107.346 82.6634C107.226 82.7733 107.065 82.8085 106.919 82.7742C106.404 82.6482 105.878 82.5519 105.35 82.488C104.822 82.4238 104.291 82.3914 103.759 82.3914C102.698 82.3912 101.632 82.5215 100.599 82.7742C100.441 82.8128 100.284 82.7657 100.171 82.6618C99.7259 82.2556 99.2518 81.8545 98.7755 81.4753C98.2971 81.0953 97.808 80.732 97.3063 80.4026C96.6859 80.0086 96.0772 79.6318 95.3988 79.487C95.1701 79.4506 94.9573 79.4304 94.8308 79.6292C94.5036 80.143 94.384 80.8233 94.2706 81.4429C94.169 82.0485 94.1048 82.671 94.0554 83.2954C93.9607 84.5454 93.9305 85.8223 93.9453 87.0785C93.9462 87.1814 93.9163 87.2766 93.8642 87.3555C93.0807 88.576 92.5253 89.9568 92.1434 91.3918C91.7611 92.8289 91.5456 94.3203 91.4277 95.8213C91.4222 95.8974 91.3984 95.9711 91.364 96.0334C90.2505 97.9987 91.1355 100.133 92.5935 101.604C92.7845 101.773 92.968 101.973 93.1718 102.126L93.5197 102.404L93.8863 102.658C94.3003 102.95 94.7899 103.208 95.2355 103.445C95.3574 103.502 95.7134 103.673 95.8416 103.734C97.1058 104.307 98.4414 104.698 99.754 105.138C99.9233 105.191 100.1 105.257 100.267 105.317C100.403 105.363 100.376 105.584 100.234 105.595Z"
                fill="black" />
            <path
                d="M104.397 100.564C104.032 100.831 103.49 100.819 103.123 100.565C103.074 100.53 103.061 100.46 103.094 100.409C103.117 100.374 103.156 100.356 103.194 100.36C103.48 100.384 103.751 100.414 104.035 100.387L104.325 100.361C104.432 100.348 104.486 100.501 104.397 100.564Z"
                fill="black" />
            <path
                d="M114.971 98.9565C116.453 98.46 118.17 98.6357 119.482 99.5221C119.616 99.613 119.503 99.8263 119.357 99.7564C118.343 99.2934 117.246 99.0839 116.14 99.1174C115.77 99.1269 115.393 99.1605 115.032 99.2159C114.88 99.2385 114.825 99.0095 114.971 98.9565Z"
                fill="black" />
            <path fill-rule="evenodd" clip-rule="evenodd"
                d="M115.961 95.8972C115.961 95.8972 115.813 93.1485 115.356 91.8238C114.9 90.4991 114.508 96.096 115.961 95.8972Z"
                fill="black" />
            <path fill-rule="evenodd" clip-rule="evenodd"
                d="M91.5587 95.8972C91.5587 95.8972 91.7073 93.1485 92.1634 91.8238C92.6197 90.4991 93.0122 96.096 91.5587 95.8972Z"
                fill="black" />
            <path
                d="M115.191 99.9225C116.687 100.005 118.177 101.125 118.42 102.715C118.446 102.875 118.225 102.936 118.172 102.784C117.704 101.383 116.502 100.532 115.162 100.189C115.006 100.158 115.031 99.9158 115.191 99.9225Z"
                fill="black" />
            <path
                d="M92.4787 99.2142C91.0268 98.9892 89.5117 99.1321 88.1625 99.756C88.018 99.8257 87.9029 99.6124 88.0375 99.5218C88.6887 99.0746 89.4579 98.8095 90.2333 98.7241C90.6221 98.6806 91.0144 98.6725 91.4025 98.711C91.7915 98.7486 92.1715 98.8202 92.5486 98.9562C92.6156 98.9804 92.6513 99.057 92.628 99.1269C92.6064 99.192 92.5414 99.2277 92.4787 99.2142Z"
                fill="black" />
            <path
                d="M92.3572 100.189C91.0178 100.532 89.8158 101.383 89.3483 102.784C89.2948 102.935 89.073 102.875 89.0994 102.715C89.3431 101.125 90.8323 100.005 92.3291 99.9226C92.4882 99.9171 92.5139 100.158 92.3572 100.189Z"
                fill="black" />
        </g>
        <path
            d="M126.135 116.505C128.56 114.376 131.474 115.273 131.706 121.553C133.677 115.48 128.712 110.749 126.135 116.505Z"
            fill="#DBDBDB" />
        <path
            d="M116.835 129.563C116.943 129.323 116.843 128.993 116.692 128.772C116.653 128.704 116.531 128.615 116.619 128.537C116.699 128.481 116.77 128.586 116.838 128.623C117.14 128.854 117.357 129.233 117.346 129.636C117.327 130.038 116.755 129.958 116.835 129.563Z"
            fill="black" />
        <path
            d="M114.86 129.563C114.969 129.323 114.868 128.993 114.718 128.772C114.678 128.704 114.557 128.615 114.644 128.537C114.724 128.481 114.796 128.586 114.863 128.623C115.166 128.854 115.383 129.233 115.371 129.636C115.352 130.038 114.78 129.958 114.86 129.563Z"
            fill="black" />
        <path
            d="M110.894 130.502C111.002 130.262 110.901 129.931 110.751 129.711C110.711 129.642 110.59 129.554 110.678 129.475C110.758 129.42 110.829 129.525 110.896 129.561C111.199 129.793 111.416 130.172 111.405 130.574C111.386 130.977 110.814 130.897 110.894 130.502Z"
            fill="black" />
        <path
            d="M108.874 130.502C108.983 130.262 108.882 129.931 108.732 129.711C108.693 129.642 108.571 129.554 108.659 129.475C108.739 129.42 108.81 129.525 108.877 129.561C109.18 129.793 109.397 130.172 109.386 130.574C109.367 130.977 108.795 130.897 108.874 130.502Z"
            fill="black" />
        <path
            d="M93.4683 129.7C93.4279 129.336 93.6005 128.967 93.8516 128.726C93.926 128.652 94.0109 128.592 94.0958 128.534C94.1324 128.508 94.1819 128.518 94.2066 128.556C94.2263 128.586 94.2242 128.625 94.204 128.653C94.0421 128.853 93.9146 129.108 93.9306 129.372C93.9344 129.438 93.9439 129.505 93.971 129.564C93.971 129.564 93.9741 129.57 93.9733 129.563C94.0521 129.912 93.5639 130.045 93.4683 129.7Z"
            fill="black" />
        <path
            d="M94.9494 129.746C94.9035 129.323 95.1351 128.911 95.4514 128.668C95.5208 128.627 95.6162 128.506 95.6877 128.601C95.7096 128.635 95.7039 128.677 95.6794 128.706C95.4823 128.943 95.3282 129.32 95.4545 129.608C95.5332 129.957 95.0448 130.09 94.9494 129.746Z"
            fill="black" />
        <path
            d="M97.5976 130.263C97.5517 129.841 97.7833 129.429 98.0995 129.185C98.1689 129.145 98.2645 129.024 98.3359 129.119C98.3577 129.152 98.3523 129.195 98.3275 129.223C98.1304 129.461 97.9763 129.838 98.1026 130.126C98.1813 130.475 97.6931 130.608 97.5976 130.263Z"
            fill="black" />
        <path
            d="M99.2763 130.433C99.2304 130.01 99.4622 129.598 99.7784 129.355C99.8479 129.314 99.9432 129.193 100.015 129.289C100.036 129.322 100.031 129.364 100.006 129.393C99.8091 129.631 99.655 130.007 99.7813 130.296C99.8602 130.644 99.3718 130.778 99.2763 130.433Z"
            fill="black" />
        <path
            d="M160.5 85.6C160.5 99.7891 154.863 113.397 144.83 123.43C134.797 133.463 121.189 139.1 107 139.1C92.8109 139.1 79.203 133.463 69.1698 123.43C59.1366 113.397 53.5 99.7891 53.5 85.6C53.5 85.6 69.1698 123.43 107 123.43C144.83 123.43 160.5 85.6 160.5 85.6Z"
            fill="black" />
    </g>
</svg>