<svg width="214" height="214" viewBox="0 0 214 214" fill="none" xmlns="http://www.w3.org/2000/svg">
    <path
        d="M107 164.067C160.842 164.067 204.489 145.969 204.489 123.644C204.489 101.32 160.842 83.2222 107 83.2222C53.1584 83.2222 9.51111 101.32 9.51111 123.644C9.51111 145.969 53.1584 164.067 107 164.067Z"
        fill="#840031" />
    <path
        d="M107 156.933C160.842 156.933 204.489 138.836 204.489 116.511C204.489 94.1865 160.842 76.0889 107 76.0889C53.1584 76.0889 9.51111 94.1865 9.51111 116.511C9.51111 138.836 53.1584 156.933 107 156.933Z"
        fill="#C01252" />
    <path
        d="M75.6628 166.102C74.4861 167.504 72.2329 167.106 71.6068 165.387L70.1982 161.517C69.5721 159.796 71.043 158.044 72.8456 158.362L76.9014 159.077C78.704 159.395 79.4865 161.545 78.31 162.947L75.6628 166.102Z"
        fill="#840031" />
    <path
        d="M143.479 165.387C142.853 167.107 140.6 167.504 139.423 166.102L136.776 162.947C135.599 161.545 136.382 159.395 138.185 159.077L142.24 158.362C144.043 158.044 145.514 159.797 144.888 161.517L143.479 165.387Z"
        fill="#840031" />
    <path
        d="M140.288 115.931C140.288 124.131 125.385 130.778 107 130.778C88.6155 130.778 73.5525 124.13 73.7118 115.931C74.9007 54.6888 91.51 54.6888 109.895 54.6888C128.279 54.6888 140.288 54.6888 140.288 115.931Z"
        fill="#58DAA6" />
    <mask id="mask0_583_167" style="mask-type:alpha" maskUnits="userSpaceOnUse" x="73" y="54"
        width="68" height="77">
        <path
            d="M140.288 115.931C140.288 124.131 125.385 130.778 107 130.778C88.6155 130.778 73.5525 124.13 73.7118 115.931C74.9007 54.6888 91.51 54.6888 109.895 54.6888C128.279 54.6888 140.288 54.6888 140.288 115.931Z"
            fill="#58DAA6" fill-opacity="0.52" />
    </mask>
    <g mask="url(#mask0_583_167)">
        <path
            d="M91.4723 112.411C91.4723 112.411 88.117 117.998 90.7155 123.902L94.9567 124.707C94.9567 124.707 93.7697 118.32 93.9371 117.863C94.1045 117.405 92.4053 112.732 92.3427 112.411C92.2801 112.091 91.4723 112.411 91.4723 112.411Z"
            fill="white" />
        <path
            d="M94.9568 125.185C94.9294 125.185 94.9018 125.183 94.8743 125.177L90.633 124.373C90.4852 124.345 90.3599 124.243 90.2973 124.101C88.8995 120.925 89.1865 117.848 89.6733 115.826C90.199 113.643 91.0465 112.217 91.0823 112.158C91.1354 112.069 91.2148 112.001 91.3084 111.964C91.5988 111.849 92.1381 111.685 92.4884 111.886C92.6491 111.978 92.7574 112.131 92.7936 112.316C92.8132 112.397 92.9713 112.866 93.1242 113.319C94.286 116.759 94.4863 117.603 94.3814 117.988C94.3434 118.474 94.8705 121.721 95.4085 124.616C95.4373 124.771 95.3907 124.931 95.2838 125.043C95.1967 125.135 95.0786 125.185 94.9568 125.185ZM91.0372 123.476L94.3785 124.11C93.4215 118.882 93.4378 117.986 93.4888 117.754C93.4783 117.255 92.5924 114.632 92.2562 113.636C92.1068 113.193 92.0179 112.929 91.9647 112.762C91.9098 112.773 91.8463 112.789 91.7828 112.808C91.3093 113.689 88.9682 118.476 91.0372 123.476Z"
            fill="#030075" />
        <path
            d="M93.9372 125.522C93.9372 125.522 89.2751 126.184 89.0594 125.34C88.5579 123.377 91.7106 121.571 93.5812 123.603"
            fill="white" />
        <path
            d="M93.9994 125.997C92.8815 126.2 89.5885 126.683 88.7754 125.821C88.7 125.74 88.6215 125.622 88.5844 125.475L88.5517 125.292C88.4486 124.698 88.6558 124.053 88.983 123.605C89.4839 122.91 90.3292 122.503 91.1435 122.634C91.2072 122.646 91.25 122.709 91.239 122.775C91.2326 122.814 91.2096 122.845 91.1786 122.862C90.8578 123.054 90.5768 123.239 90.3296 123.452C89.8428 123.863 89.3638 124.452 89.5163 125.114L89.5352 125.208C89.5221 125.152 89.4953 125.114 89.4826 125.1C89.789 125.206 90.3141 125.229 90.7032 125.229C91.7554 125.224 92.823 125.128 93.8751 125.048C94.4567 125.009 94.5693 125.871 93.9994 125.997Z"
            fill="#030075" />
        <path
            d="M111.833 121.831C116.58 127.014 125.798 125.957 128.544 120.279C129.094 119.142 129.385 117.819 129.328 116.324C128.954 107.236 121.121 104.514 118.718 111.386C117.721 114.446 119.977 115.125 121.092 113.726C123.324 111.111 125.258 113.58 125.173 117.246C125.14 117.903 125.033 118.491 124.86 119.017C123.359 123.65 116.944 123.371 112.933 120.417L111.833 121.831Z"
            fill="white" />
        <path fill-rule="evenodd" clip-rule="evenodd"
            d="M111.833 121.831C115.506 125.842 121.857 126.116 125.813 123.403C125.815 123.403 125.817 123.401 125.819 123.399C126.974 122.608 127.924 121.561 128.544 120.279C126.709 120.839 125.519 119.878 124.86 119.017C123.76 122.413 120.017 123.169 116.519 122.166C115.246 121.802 114.004 121.205 112.933 120.416L111.833 121.831Z"
            fill="#FFAC42" />
        <path fill-rule="evenodd" clip-rule="evenodd"
            d="M111.833 121.831C115.506 125.842 121.857 126.116 125.813 123.403C120.135 126.145 116.549 122.237 116.549 122.237L116.519 122.166C115.246 121.803 114.004 121.205 112.933 120.417L111.833 121.831Z"
            fill="#E57C35" />
        <path
            d="M119.773 125.664C119.084 125.664 118.393 125.606 117.709 125.487C115.249 125.06 113.102 123.91 111.501 122.162C111.326 121.97 111.333 121.667 111.517 121.485C111.7 121.303 111.992 121.31 112.167 121.501C115.411 125.042 120.616 125.35 124.08 123.824C127.251 122.427 128.997 119.7 128.869 116.342C128.656 111.184 126.046 108.43 123.71 108.056C121.733 107.738 120.029 109.043 119.153 111.546C118.718 112.884 118.989 113.609 119.389 113.842C119.79 114.075 120.358 113.898 120.738 113.42C120.742 113.416 120.745 113.411 120.748 113.407C122.003 111.938 123.075 112.08 123.602 112.297C124.893 112.825 125.69 114.772 125.633 117.257C125.633 117.261 125.633 117.266 125.632 117.271C125.479 120.276 123.901 121.686 122.604 122.339C119.901 123.701 115.722 123.056 112.667 120.806C112.46 120.653 112.411 120.355 112.557 120.139C112.704 119.923 112.991 119.872 113.199 120.025C115.996 122.086 119.783 122.696 122.203 121.478C123.741 120.703 124.609 119.233 124.713 117.227C124.757 115.247 124.149 113.549 123.265 113.187C122.595 112.913 121.904 113.496 121.441 114.037C120.777 114.865 119.727 115.134 118.94 114.677C118.589 114.473 117.505 113.622 118.283 111.233C118.284 111.23 118.285 111.227 118.286 111.223C119.309 108.299 121.441 106.723 123.85 107.11C126.545 107.542 129.553 110.603 129.788 116.303C129.863 118.269 129.38 120.028 128.354 121.533C127.43 122.888 126.076 123.985 124.439 124.706C123.002 125.339 121.396 125.664 119.773 125.664Z"
            fill="#030075" />
        <path
            d="M120.745 112.631C123.081 110.581 125.886 111.445 126.11 117.491C128.008 111.644 123.227 107.087 120.745 112.631Z"
            fill="#DBDBDB" />
        <path
            d="M92.1597 103.319L96.2371 125.356C101.958 125.727 107.119 125.773 111.757 125.515C113.377 122.099 114.151 118.927 114.092 116.318C114.039 113.852 113.244 111.888 111.715 110.699C110.786 108.227 109.06 104.284 108.09 102.098C107.66 101.131 107.378 100.507 107.378 100.507L92.2922 100.131L92.1597 103.319Z"
            fill="white" />
        <path
            d="M112.319 123.144C112.319 123.144 113.174 120.119 113.352 118.83C113.352 118.83 112.771 120.539 110.93 120.987C109.089 121.436 108.453 117.99 108.453 117.99C108.453 117.99 106.345 123.586 106.523 123.949C106.701 124.312 107.036 124.782 107.057 124.696C107.077 124.611 109.24 122.724 110.465 122.917C111.689 123.109 112.3 123.629 112.3 123.629L112.319 123.144Z"
            fill="#DBDBDB" />
        <path
            d="M101.557 125.186C101.557 125.186 101.215 121.751 101.057 120.213C100.9 118.675 102.55 108.176 100.105 107.82C97.6599 107.463 98.6616 113.549 98.7564 117.966C98.8512 122.383 98.5979 124.391 98.3458 124.981C98.0938 125.572 101.757 125.632 101.557 125.186Z"
            fill="#DBDBDB" />
        <path
            d="M108.044 101.619L108.738 103.566C102.588 102.723 96.7685 102.587 91.4724 103.566L92.5703 100.568L107.378 100.507L108.044 101.619Z"
            fill="#DBDBDB" />
        <path fill-rule="evenodd" clip-rule="evenodd"
            d="M107.897 102.075C107.897 102.075 107.91 102.144 107.934 102.272V102.274C108.168 103.509 109.397 110.167 109.417 112.631C109.417 112.73 109.417 112.82 109.413 112.905C109.323 115.261 111.999 112.391 114.092 116.318C114.054 114.541 113.631 113.023 112.825 111.871C112.512 111.425 112.142 111.032 111.715 110.699C110.795 108.253 109.093 104.361 108.12 102.163C108.109 102.142 108.1 102.119 108.09 102.098L107.897 102.075Z"
            fill="#FFAC42" />
        <path fill-rule="evenodd" clip-rule="evenodd"
            d="M107.934 102.272V102.274C108.168 103.508 109.397 110.167 109.417 112.63C109.75 112.2 110.103 111.392 110.718 111.145C111.594 110.793 112.828 112.062 112.828 112.062L112.825 111.87C112.512 111.424 112.142 111.032 111.715 110.699C110.795 108.252 109.093 104.36 108.12 102.162C108.052 102.193 107.991 102.229 107.934 102.272Z"
            fill="#E57C35" />
        <path
            d="M105.667 126.155C102.674 126.155 99.5117 126.047 96.2087 125.833C95.9994 125.819 95.8254 125.66 95.7857 125.445L91.7073 103.409C91.7006 103.372 91.6979 103.335 91.6995 103.298L91.8322 100.11C91.8431 99.8497 92.0509 99.6484 92.3028 99.6525L107.389 100.029C107.564 100.033 107.72 100.139 107.795 100.303C107.824 100.369 110.744 106.833 112.097 110.401C113.695 111.706 114.545 113.823 114.557 116.532C114.569 119.229 113.744 122.409 112.171 125.726C112.097 125.881 111.949 125.983 111.783 125.992C109.837 126.101 107.795 126.155 105.667 126.155ZM96.6217 124.9C101.993 125.238 106.983 125.288 111.463 125.051C112.897 121.958 113.648 119.019 113.637 116.536C113.626 114.079 112.867 112.194 111.44 111.083C111.372 111.03 111.319 110.957 111.288 110.874C110.119 107.768 107.655 102.254 107.083 100.979L92.7318 100.621L92.621 103.283L96.6217 124.9Z"
            fill="#030075" />
        <path
            d="M92.966 125.183C93.058 126.581 97.4114 126.59 98.2689 125.572C98.3645 125.457 98.451 125.3 98.5283 125.107C99.1429 123.57 98.6669 119.937 98.6706 117.002L98.8485 115.95L93.575 103.26L92.609 100.937L92.4563 100.568C92.241 101.395 92.0478 102.188 91.8749 102.946C91.827 103.149 91.7829 103.35 91.7387 103.549C89.7129 112.79 90.8408 117.183 93.8418 123.705C93.8418 123.705 92.8758 123.786 92.966 125.183Z"
            fill="white" />
        <path
            d="M98.3531 125.107C98.9677 123.57 98.7137 119.763 98.7174 116.828L98.6733 115.95C98.7065 116.574 98.7414 117.248 98.7561 117.966C98.8518 122.383 98.5979 124.391 98.3458 124.981C98.3256 125.027 98.3311 125.069 98.3531 125.107Z"
            fill="#DBDBDB" />
        <path
            d="M91.4716 103.566C91.5028 103.56 91.5323 103.555 91.5636 103.549C92.1689 103.44 92.9568 103.344 93.575 103.26L92.609 100.938L91.6997 102.946L91.4716 103.566Z"
            fill="#DBDBDB" />
        <path
            d="M92.7258 100.693C90.4482 109.62 89.9937 115.047 94.0811 123.498C94.081 123.498 93.7029 124.182 93.7029 124.182C93.718 124.18 93.7113 124.181 93.7121 124.181C93.3144 124.259 93.2271 124.747 93.2569 125.124C93.3021 125.526 94.3041 125.712 94.6489 125.755C95.5046 125.86 97.0871 125.833 97.7447 125.258C97.8547 125.035 97.8988 124.713 97.9385 124.431C98.0234 123.752 98.0517 123.065 98.0747 122.374C98.1354 119.568 98.1283 116.751 98.1448 113.941C98.1509 112.999 98.1592 112.058 98.2025 111.115C98.2063 111.04 98.2679 110.982 98.3402 110.986C98.4078 110.99 98.4608 111.046 98.4641 111.115C98.5648 112.986 98.7211 114.861 98.8241 116.74C98.9099 118.414 99.3466 124.832 98.4289 125.903C97.4228 126.998 94.2859 126.994 93.0681 126.285C92.6704 126.073 92.3079 125.634 92.3215 125.126C92.262 124.26 92.7121 123.338 93.628 123.228C93.6331 123.226 93.2501 123.911 93.2513 123.912C92.423 122.109 91.6376 120.266 91.0576 118.329C89.8444 114.463 89.8798 110.266 90.5631 106.304C90.89 104.327 91.3379 102.377 91.8378 100.442C92.0081 99.847 92.8673 100.061 92.7258 100.693Z"
            fill="#030075" />
        <path
            d="M93.6108 123.23C94.7827 123.243 95.946 123.534 97.0075 124.039C97.1076 124.085 97.0549 124.248 96.9476 124.22C95.8905 123.984 94.7793 123.953 93.7213 124.18C93.0363 124.324 92.9109 123.262 93.6108 123.23Z"
            fill="#030075" />
        <path
            d="M100.959 119.415C100.997 120.16 100.729 120.909 100.81 121.617C100.81 121.619 101.103 121.526 101.103 121.526C101.274 123.012 101.24 124.422 101.557 125.185C101.639 125.384 101.726 125.547 101.816 125.664C102.626 126.725 106.975 126.933 107.13 125.541C107.286 124.15 106.324 124.021 106.324 124.021C108.473 119.565 108.935 115.364 109.049 111.145L101.157 116.31L101.301 116.385C101.262 117.241 100.914 118.464 100.959 119.415Z"
            fill="white" />
        <path
            d="M101.556 125.185C101.556 125.185 101.104 123.242 100.809 121.621C100.98 123.106 101.24 124.421 101.556 125.185Z"
            fill="#DBDBDB" />
        <path
            d="M100.631 119.415C100.729 118.628 100.964 117.491 101.157 116.31L100.618 116.662C100.58 117.518 100.587 118.464 100.631 119.415Z"
            fill="#DBDBDB" />
        <path
            d="M108.754 106.761C110.23 112.448 109.313 119.026 106.736 124.235L106.384 123.546C106.427 123.553 106.436 123.555 106.471 123.563C107.369 123.781 107.711 124.739 107.595 125.594C107.551 126.076 107.176 126.452 106.79 126.634C105.541 127.271 102.438 127.119 101.476 125.991C101.432 125.938 101.384 125.861 101.353 125.799C101.164 125.408 101.115 125.019 101.049 124.62C100.946 123.902 100.899 123.18 100.863 122.461C100.725 119.608 100.865 116.778 101.02 113.938C101.075 112.994 101.144 112.051 101.23 111.109C101.237 111.034 101.301 110.979 101.373 110.986C101.44 110.993 101.491 111.053 101.491 111.122C101.507 113.949 101.553 116.776 101.657 119.599C101.715 121.002 101.743 122.405 101.879 123.797C101.941 124.315 101.978 124.901 102.177 125.366C102.883 126.056 104.913 126.145 105.845 125.935C106.125 125.873 106.582 125.743 106.665 125.49C106.682 125.359 106.686 125.211 106.673 125.086C106.642 124.788 106.52 124.568 106.257 124.494C106.257 124.494 106.25 124.493 106.266 124.495L105.914 123.806C107.098 121.184 107.92 118.391 108.374 115.532C108.598 114.1 108.724 112.648 108.736 111.197C108.747 109.74 108.634 108.283 108.395 106.846C108.378 106.741 108.445 106.642 108.546 106.624C108.639 106.607 108.729 106.668 108.754 106.761Z"
            fill="#030075" />
        <path
            d="M106.248 124.492C105.201 124.213 104.09 124.188 103.023 124.371C102.916 124.394 102.869 124.229 102.972 124.187C104.056 123.736 105.231 123.504 106.402 123.549C107.099 123.616 106.927 124.669 106.248 124.492Z"
            fill="#030075" />
        <path
            d="M107.897 125.522C107.897 125.522 112.559 126.184 112.775 125.34C113.277 123.377 110.124 121.571 108.253 123.603"
            fill="white" />
        <path
            d="M107.96 125.048C108.88 125.13 109.817 125.206 110.73 125.226C111.245 125.223 111.809 125.247 112.291 125.098C112.323 125.087 112.346 125.074 112.35 125.072C112.355 125.07 112.332 125.079 112.3 125.139C112.294 125.153 112.284 125.171 112.28 125.189C112.304 125.107 112.333 124.883 112.308 124.748C112.269 124.414 112.066 124.077 111.783 123.807C111.034 123.092 109.874 122.978 108.94 123.37C108.736 123.453 108.539 123.567 108.328 123.686C108.232 123.746 108.116 123.622 108.173 123.524C108.696 122.533 109.895 122.092 110.936 122.329C112.327 122.594 113.673 123.936 113.263 125.511C112.973 126.414 111.408 126.3 110.706 126.304C109.735 126.272 108.792 126.164 107.835 125.997C107.259 125.876 107.374 125.003 107.96 125.048Z"
            fill="#030075" />
        <g id='head'>
            <path
                d="M86.6247 96.3654C86.736 96.6627 86.8788 96.9571 87.0491 97.2472C87.0505 97.2501 87.0533 97.2543 87.0533 97.2543L87.0546 97.2558C88.3376 99.421 91.2277 101.297 95.2291 101.911C95.2346 101.912 95.2414 101.912 95.2483 101.913C95.339 101.928 95.4296 101.941 95.5203 101.952C95.6192 101.965 95.7181 101.978 95.8184 101.991C96.9448 102.071 98.0711 102.112 99.1975 102.112C100.324 102.112 101.45 102.071 102.577 101.991C102.677 101.978 102.776 101.965 102.875 101.952C102.965 101.941 103.056 101.928 103.147 101.913C103.154 101.912 103.16 101.912 103.166 101.911C103.736 101.823 104.283 101.711 104.806 101.573C107.959 100.757 110.24 99.1123 111.34 97.2558C111.513 96.9642 111.658 96.6655 111.77 96.3654C112.239 95.1277 112.187 93.8429 111.531 92.6753C111.265 89.178 110.468 86.3997 109.108 84.2931V84.2917C109.111 84.1659 109.225 77.9475 108.067 76.7127C106.895 75.4651 102.347 79.6826 102.347 79.6826L102.318 79.6754C101.292 79.4267 100.246 79.301 99.1975 79.301C98.1494 79.301 97.1027 79.4267 96.0766 79.6754L96.0478 79.6826C96.0478 79.6826 91.4997 75.4651 90.328 76.7127C89.17 77.9475 89.2841 84.1659 89.2868 84.2917V84.2931C87.9269 86.3997 87.1302 89.178 86.8637 92.6753C86.2085 93.8429 86.1563 95.1277 86.6247 96.3654Z"
                fill="white" />
            <path
                d="M100.61 97.1349C99.7103 97.3557 98.7658 97.3377 97.7864 97.1349C97.7864 98.4042 100.61 98.4042 100.61 97.1349Z"
                fill="#DBDBDB" />
            <path
                d="M87.0862 95.8553C87.4557 98.2206 90.1823 99.9857 93.5889 101.573C94.1123 101.711 94.659 101.824 95.229 101.911C95.2345 101.912 95.2414 101.912 95.2483 101.914C95.339 101.928 95.4296 101.941 95.5202 101.952C95.6191 101.965 95.7181 101.978 95.8183 101.991C96.9447 102.071 98.0711 102.112 99.1974 102.112C100.324 102.112 101.45 102.071 102.577 101.991C102.677 101.978 102.776 101.965 102.875 101.952C102.965 101.941 103.056 101.928 103.147 101.914C103.153 101.912 103.16 101.912 103.166 101.911C103.736 101.824 104.283 101.711 104.806 101.573C108.213 99.9857 110.939 98.2206 111.309 95.8553C108.674 98.8809 105.056 100.406 99.1974 100.406C93.5309 100.406 89.7208 98.8809 87.0862 95.8553Z"
                fill="#DBDBDB" />
            <path fill-rule="evenodd" clip-rule="evenodd"
                d="M86.6247 96.3654C86.736 96.6627 86.8788 96.9571 87.0491 97.2472C87.0505 97.2501 87.0533 97.2543 87.0533 97.2543C85.9008 94.1702 87.5464 92.2722 89.9612 94.1702C92.7126 95.9252 94.9214 96.131 96.6219 94.8948C97.7208 94.2545 97.6357 91.8992 98.1425 90.4257C98.4942 89.401 99.9008 89.401 100.252 90.4257C100.759 91.8992 100.674 94.2545 101.773 94.8948C103.474 96.131 105.682 95.9252 108.434 94.1702C110.849 92.2722 112.494 94.1702 111.34 97.2558C111.513 96.9642 111.658 96.6655 111.77 96.3654C112.239 95.1277 112.187 93.8429 111.531 92.6752C111.265 89.178 110.468 86.3997 109.108 84.2931V84.2917C109.111 84.1659 109.225 77.9475 108.067 76.7127C106.895 75.4651 102.347 79.6826 102.347 79.6826L102.318 79.6754C101.292 79.4267 100.246 79.301 99.1975 79.301C98.1494 79.301 97.1027 79.4267 96.0766 79.6754L96.0478 79.6826C96.0478 79.6826 91.4997 75.4651 90.328 76.7127C89.17 77.9475 89.284 84.1659 89.2868 84.2917V84.2931C87.9269 86.3997 87.1302 89.178 86.8637 92.6752C86.2085 93.8429 86.1563 95.1277 86.6247 96.3654Z"
                fill="#FFAC42" />
            <path fill-rule="evenodd" clip-rule="evenodd"
                d="M100.069 79.3455C100.069 84.5426 98.3268 84.5426 98.3268 79.3455H100.069Z"
                fill="#E57C35" />
            <path fill-rule="evenodd" clip-rule="evenodd"
                d="M101.412 79.6505C101.412 79.6505 100.717 83.0522 101.412 82.5419C102.107 82.0317 102.347 79.6829 102.347 79.6829L101.412 79.6505Z"
                fill="#E57C35" />
            <path fill-rule="evenodd" clip-rule="evenodd"
                d="M96.9838 79.6505C96.9838 79.6505 97.6786 83.0522 96.9838 82.5419C96.289 82.0317 96.0488 79.6829 96.0488 79.6829L96.9838 79.6505Z"
                fill="#E57C35" />
            <g opacity="0.48">
                <path
                    d="M89.2853 84.1259C89.3045 82.2823 89.4515 78.4978 90.3279 77.5631C91.4996 76.3154 96.0477 80.5329 96.0477 80.5329L96.0765 80.5258C97.1026 80.2771 98.1493 80.1514 99.1974 80.1514C100.246 80.1514 101.292 80.2771 102.318 80.5258L102.347 80.5329C102.347 80.5329 106.895 76.3154 108.067 77.5631C108.945 78.4978 109.092 82.288 109.111 84.1302C109.121 83.1312 109.125 77.8418 108.067 76.7127C106.895 75.4651 102.347 79.6826 102.347 79.6826L102.318 79.6754C101.292 79.4267 100.246 79.301 99.1974 79.301C98.1493 79.301 97.1026 79.4267 96.0765 79.6754L96.0477 79.6826C96.0477 79.6826 91.4996 75.4651 90.3279 76.7127C89.2715 77.8389 89.2743 83.114 89.2853 84.1259Z"
                    fill="white" />
            </g>
            <g opacity="0.37">
                <path
                    d="M109.108 84.2936C109.11 84.295 109.111 84.2979 109.111 84.2979V84.1731C109.11 84.242 109.108 84.2836 109.108 84.2922V84.2936Z"
                    fill="white" />
            </g>
            <g opacity="0.37">
                <path
                    d="M89.2839 84.2999C89.2854 84.2985 89.2868 84.2956 89.2868 84.2956V84.2941C89.2868 84.2839 89.2854 84.2402 89.2854 84.1644C89.2839 84.211 89.2839 84.2562 89.2839 84.2999Z"
                    fill="white" />
            </g>
            <path
                d="M98.1765 93.9352C98.1765 94.2131 98.6339 94.814 99.1981 94.814C99.7624 94.814 100.22 94.2131 100.22 93.9352C100.22 93.6573 99.7624 93.5215 99.1981 93.5215C98.6339 93.5215 98.1765 93.6573 98.1765 93.9352Z"
                fill="#030075" />
            <path
                d="M99.4233 94.3473L99.299 95.166C99.2824 95.2842 99.1131 95.2829 99.0971 95.166L98.9728 94.3474C98.937 93.9856 99.4591 93.9853 99.4233 94.3473Z"
                fill="#030075" />
            <path
                d="M99.2834 95.3339C99.9458 96.0833 101.014 96.5304 101.901 95.9316C101.994 95.8654 102.108 95.99 102.042 96.0828C101.233 97.1698 99.5326 96.6253 99.1127 95.446C99.0707 95.3384 99.2091 95.2485 99.2834 95.3339Z"
                fill="#030075" />
            <path
                d="M99.3097 95.4634C99.039 96.3595 97.9684 96.9685 97.0736 96.665C96.7724 96.568 96.4977 96.3719 96.3328 96.1062C96.2921 96.0407 96.3102 95.9534 96.3731 95.9111C96.4181 95.8809 96.4731 95.8821 96.5164 95.9084C96.9463 96.1498 97.4009 96.1984 97.8591 96.0746C98.3297 95.9463 98.7118 95.6617 99.0862 95.3167C99.1853 95.2144 99.3562 95.3278 99.3097 95.4634Z"
                fill="#030075" />
            <path
                d="M104.264 94.1707C105.306 94.1707 106.151 93.1697 106.151 91.935C106.151 90.7002 105.306 89.6992 104.264 89.6992C103.222 89.6992 102.377 90.7002 102.377 91.935C102.377 93.1697 103.222 94.1707 104.264 94.1707Z"
                fill="#030075" />
            <path
                d="M103.446 92.0997C103.719 92.0997 103.94 91.8144 103.94 91.4625C103.94 91.1106 103.719 90.8253 103.446 90.8253C103.173 90.8253 102.951 91.1106 102.951 91.4625C102.951 91.8144 103.173 92.0997 103.446 92.0997Z"
                fill="white" />
            <g opacity="0.37">
                <path
                    d="M104.795 93.4154C104.979 93.4154 105.129 93.2533 105.129 93.0533C105.129 92.8534 104.979 92.6913 104.795 92.6913C104.61 92.6913 104.46 92.8534 104.46 93.0533C104.46 93.2533 104.61 93.4154 104.795 93.4154Z"
                    fill="white" />
            </g>
            <path
                d="M94.1323 94.1707C95.1743 94.1707 96.0191 93.1697 96.0191 91.935C96.0191 90.7002 95.1743 89.6992 94.1323 89.6992C93.0903 89.6992 92.2455 90.7002 92.2455 91.935C92.2455 93.1697 93.0903 94.1707 94.1323 94.1707Z"
                fill="#030075" />
            <path
                d="M94.9503 92.0997C95.2233 92.0997 95.4447 91.8144 95.4447 91.4625C95.4447 91.1106 95.2233 90.8253 94.9503 90.8253C94.6772 90.8253 94.4559 91.1106 94.4559 91.4625C94.4559 91.8144 94.6772 92.0997 94.9503 92.0997Z"
                fill="white" />
            <g opacity="0.37">
                <path
                    d="M93.6015 93.4154C93.7862 93.4154 93.9359 93.2533 93.9359 93.0533C93.9359 92.8534 93.7862 92.6913 93.6015 92.6913C93.4168 92.6913 93.267 92.8534 93.267 93.0533C93.267 93.2533 93.4168 93.4154 93.6015 93.4154Z"
                    fill="white" />
            </g>
            <path
                d="M103.459 84.8101C102.343 84.7303 102.255 86.0595 103.371 86.1393C103.961 86.2001 104.478 86.2984 104.922 86.4348C104.922 86.4348 104.842 85.1717 103.459 84.8101Z"
                fill="#030075" />
            <path
                d="M94.9372 84.8101C96.0532 84.7303 96.141 86.0595 95.0249 86.1393C94.4356 86.2001 93.9183 86.2984 93.4741 86.4348C93.4741 86.4348 93.5546 85.1717 94.9372 84.8101Z"
                fill="#030075" />
            <path
                d="M105.089 80.6745C106.023 81.1447 106.853 81.7292 107.582 82.431C107.772 81.3348 107.526 78.7608 107.045 78.6965C106.619 78.6408 105.511 80.0957 105.089 80.6745Z"
                fill="#FFA6CA" />
            <path
                d="M107.582 82.7496C107.506 82.7496 107.431 82.7202 107.374 82.6648C106.671 81.9883 105.857 81.4152 104.955 80.9613C104.873 80.9197 104.812 80.8416 104.791 80.7487C104.769 80.6557 104.789 80.5577 104.845 80.4815C106.437 78.2953 106.907 78.3564 107.083 78.3797C107.225 78.3987 107.349 78.4823 107.452 78.6282C107.907 79.2742 108.053 81.5068 107.884 82.4871C107.864 82.6018 107.786 82.696 107.679 82.7331C107.648 82.7442 107.615 82.7496 107.582 82.7496ZM105.558 80.5634C106.198 80.9136 106.793 81.3226 107.336 81.7851C107.374 80.7505 107.187 79.3532 106.979 79.0315C106.785 79.1273 106.301 79.58 105.558 80.5634Z"
                fill="#030075" />
            <path
                d="M93.3057 80.6745C92.3717 81.1447 91.542 81.7292 90.8126 82.431C90.6231 81.3348 90.8689 78.7608 91.3497 78.6965C91.7755 78.6408 92.884 80.0957 93.3057 80.6745Z"
                fill="#FFA6CA" />
            <path
                d="M90.8128 82.7501C90.7803 82.7501 90.7474 82.7447 90.7155 82.7336C90.6093 82.6966 90.531 82.6023 90.5111 82.4876C90.3416 81.5073 90.4879 79.2747 90.943 78.6287C91.0457 78.4828 91.1695 78.3993 91.3109 78.3803C91.4888 78.3571 91.9575 78.2955 93.5504 80.482C93.6059 80.5582 93.6256 80.6562 93.6041 80.7492C93.5827 80.8422 93.5223 80.9202 93.4395 80.9618C92.5381 81.4156 91.7243 81.9888 91.0211 82.6653C90.9635 82.7207 90.8889 82.7501 90.8128 82.7501ZM91.4163 79.032C91.2075 79.3538 91.0205 80.751 91.059 81.7856C91.6018 81.3231 92.197 80.914 92.8366 80.5639C92.0937 79.5804 91.6096 79.1277 91.4163 79.032Z"
                fill="#030075" />
            <path
                d="M95.8025 102.124C94.7263 102.231 93.5808 102.083 92.4871 101.753C92.061 101.63 91.5907 101.456 91.1824 101.284C90.95 101.17 90.5684 101.006 90.3465 100.872C88.0524 99.6142 85.6843 97.3146 85.8703 94.3878C85.9205 93.697 86.1359 93.0225 86.4666 92.434L86.4053 92.6374C86.5225 91.145 86.7369 89.651 87.1252 88.1908C87.513 86.7337 88.0829 85.3066 88.905 84.0263L88.8269 84.2932L88.8227 83.8337C88.8295 82.1162 88.8814 80.4034 89.1538 78.7015C89.3385 77.752 89.5849 76.152 90.7268 76.0173C92.3539 75.8291 95.1262 78.2374 96.3538 79.3254L95.9413 79.2171C97.0092 78.9558 98.1012 78.8226 99.1975 78.8225C100.294 78.8226 101.386 78.9558 102.454 79.2171L102.041 79.3254C103.337 78.1764 105.437 76.3877 107.091 76.0396C108.3 75.7982 108.764 76.6962 109.043 77.757C109.423 79.2906 109.497 80.8684 109.554 82.4373C109.575 83.0335 109.573 83.6939 109.568 84.2932L109.49 84.0264C111.124 86.5787 111.752 89.6388 111.99 92.636C111.991 92.643 111.928 92.434 111.928 92.434C113.48 95.2408 111.851 98.0991 109.623 99.8471C107.767 101.313 105.284 102.165 103.051 102.156C102.901 102.159 102.743 102.149 102.594 102.141C102.429 102.13 102.406 101.89 102.559 101.84C102.747 101.782 102.942 101.717 103.131 101.665C104.546 101.237 105.907 100.801 107.213 100.151C108.472 99.5304 109.713 98.7067 110.576 97.5542C111.234 96.6732 111.697 95.5814 111.608 94.4627C111.568 93.9211 111.401 93.394 111.134 92.9165C111.098 92.8516 111.078 92.7823 111.073 92.7117C110.959 91.2661 110.752 89.8301 110.383 88.4464C110.016 87.0646 109.481 85.7351 108.726 84.5599C108.673 84.4788 108.647 84.3849 108.648 84.2931C108.651 83.7043 108.655 83.0526 108.635 82.4652C108.598 81.2633 108.528 80.0457 108.335 78.8661C108.243 78.324 108.119 77.7277 107.881 77.2602C107.785 77.1197 107.746 76.9811 107.553 76.9668C106.245 76.918 103.678 79.1244 102.652 80.0414C102.536 80.1472 102.38 80.1812 102.241 80.1481C101.745 80.0268 101.238 79.934 100.73 79.8724C100.221 79.8107 99.7093 79.7796 99.1976 79.7795C98.175 79.7792 97.1489 79.9048 96.1543 80.1481C96.0025 80.1852 95.8506 80.14 95.7418 80.0398C95.3133 79.6488 94.8568 79.2625 94.3981 78.8972C93.9375 78.5313 93.4665 78.1814 92.9833 77.8644C92.3858 77.485 91.7996 77.122 91.1463 76.9825C90.9263 76.9475 90.7212 76.9281 90.5995 77.1195C90.2844 77.6143 90.1691 78.2694 90.06 78.8661C89.9622 79.4494 89.9002 80.0487 89.8527 80.6501C89.7615 81.8538 89.7324 83.0835 89.7467 84.2932C89.7476 84.3922 89.7188 84.4838 89.6686 84.56C88.914 85.7353 88.3791 87.0649 88.0116 88.4468C87.6433 89.8307 87.4358 91.2668 87.3222 92.7125C87.3169 92.7857 87.294 92.8568 87.2609 92.9166C86.1887 94.8092 87.041 96.8643 88.4449 98.2813C88.6288 98.4439 88.8056 98.6368 89.0019 98.7833L89.3367 99.0516L89.6899 99.2965C90.0884 99.5778 90.5599 99.8256 90.9892 100.054C91.1067 100.108 91.4494 100.274 91.5727 100.332C92.7903 100.884 94.0763 101.26 95.3403 101.685C95.5034 101.735 95.6735 101.799 95.8343 101.857C95.9658 101.901 95.9389 102.114 95.8025 102.124Z"
                fill="#030075" />
            <path
                d="M99.8119 97.2798C99.4604 97.5369 98.9385 97.5249 98.585 97.2807C98.5373 97.2472 98.5247 97.1799 98.5569 97.1303C98.579 97.0961 98.6164 97.0795 98.6532 97.083C98.9289 97.1064 99.1894 97.1347 99.4634 97.1095C99.4634 97.1095 99.7397 97.0836 99.7419 97.0836C99.8458 97.0718 99.8971 97.2193 99.8119 97.2798Z"
                fill="#030075" />
            <path
                d="M109.994 95.7315C111.422 95.2532 113.075 95.4225 114.339 96.2761C114.467 96.3636 114.358 96.5691 114.218 96.5018C113.242 96.0558 112.185 95.8542 111.12 95.8866C110.764 95.8957 110.401 95.9279 110.053 95.9812C109.907 96.003 109.854 95.7825 109.994 95.7315Z"
                fill="#030075" />
            <path fill-rule="evenodd" clip-rule="evenodd"
                d="M110.948 92.7855C110.948 92.7855 110.805 90.1385 110.365 88.8629C109.926 87.5873 109.548 92.9768 110.948 92.7855Z"
                fill="#E57C35" />
            <path fill-rule="evenodd" clip-rule="evenodd"
                d="M87.4484 92.7855C87.4484 92.7855 87.5915 90.1385 88.0308 88.8629C88.4701 87.5873 88.8482 92.9768 87.4484 92.7855Z"
                fill="#E57C35" />
            <path
                d="M110.206 96.6619C111.647 96.7412 113.081 97.8197 113.316 99.3508C113.34 99.5047 113.128 99.5636 113.076 99.4171C112.626 98.0682 111.468 97.249 110.179 96.9184C110.028 96.889 110.052 96.6556 110.206 96.6619Z"
                fill="#030075" />
            <path
                d="M88.3343 95.9797C86.9362 95.7629 85.4771 95.9005 84.1779 96.5016C84.0388 96.5686 83.928 96.3631 84.0575 96.2759C84.6846 95.8452 85.4254 95.59 86.172 95.5077C86.5465 95.4659 86.9243 95.4579 87.2979 95.4952C87.6726 95.5312 88.0385 95.6002 88.4016 95.7313C88.4663 95.7546 88.5006 95.8282 88.4781 95.8955C88.4573 95.9584 88.3947 95.9927 88.3343 95.9797Z"
                fill="#030075" />
            <path
                d="M88.2174 96.9183C86.9274 97.2489 85.77 98.0683 85.3199 99.4171C85.2684 99.5631 85.0548 99.5046 85.0802 99.3507C85.3149 97.8195 86.749 96.7414 88.1902 96.6618C88.3435 96.6565 88.3682 96.8885 88.2174 96.9183Z"
                fill="#030075" />
        </g>
        <path
            d="M111.789 125.206C111.893 124.974 111.796 124.656 111.652 124.444C111.614 124.378 111.497 124.292 111.581 124.217C111.658 124.164 111.727 124.264 111.792 124.3C112.083 124.523 112.292 124.888 112.281 125.275C112.263 125.663 111.712 125.586 111.789 125.206Z"
            fill="#030075" />
        <path
            d="M109.887 125.206C109.992 124.974 109.895 124.656 109.75 124.444C109.712 124.378 109.595 124.293 109.68 124.217C109.757 124.164 109.825 124.264 109.89 124.3C110.182 124.523 110.391 124.888 110.38 125.275C110.361 125.663 109.811 125.586 109.887 125.206Z"
            fill="#030075" />
        <path
            d="M106.068 126.11C106.172 125.878 106.075 125.56 105.931 125.348C105.892 125.282 105.776 125.196 105.86 125.121C105.937 125.067 106.006 125.168 106.071 125.204C106.362 125.427 106.571 125.792 106.56 126.179C106.542 126.567 105.991 126.49 106.068 126.11Z"
            fill="#030075" />
        <path
            d="M104.123 126.11C104.228 125.878 104.131 125.56 103.986 125.348C103.948 125.282 103.831 125.196 103.916 125.121C103.993 125.067 104.061 125.168 104.126 125.204C104.417 125.427 104.627 125.792 104.616 126.179C104.597 126.567 104.046 126.49 104.123 126.11Z"
            fill="#030075" />
        <path
            d="M89.2873 125.338C89.2484 124.987 89.4147 124.631 89.6564 124.399C89.728 124.328 89.8098 124.27 89.8916 124.214C89.9268 124.189 89.9745 124.199 89.9983 124.235C90.0173 124.265 90.0153 124.302 89.9958 124.329C89.8399 124.521 89.7171 124.767 89.7325 125.021C89.7362 125.085 89.7453 125.15 89.7714 125.206C89.7725 125.208 89.7745 125.212 89.7737 125.205C89.8495 125.541 89.3793 125.669 89.2873 125.338Z"
            fill="#030075" />
        <path
            d="M90.7136 125.381C90.6694 124.974 90.8925 124.577 91.197 124.343C91.2639 124.304 91.3557 124.187 91.4246 124.279C91.4457 124.311 91.4402 124.352 91.4166 124.38C91.2267 124.608 91.0783 124.971 91.2 125.249C91.2758 125.585 90.8055 125.713 90.7136 125.381Z"
            fill="#030075" />
        <path
            d="M93.2638 125.88C93.2196 125.473 93.4427 125.076 93.7472 124.842C93.8141 124.802 93.9059 124.686 93.9747 124.778C93.9959 124.81 93.9904 124.851 93.9668 124.878C93.7769 125.107 93.6285 125.47 93.7501 125.748C93.8259 126.083 93.3557 126.212 93.2638 125.88Z"
            fill="#030075" />
        <path
            d="M94.8804 126.043C94.8362 125.636 95.0593 125.239 95.3638 125.005C95.4307 124.966 95.5226 124.849 95.5914 124.941C95.6125 124.973 95.6071 125.014 95.5834 125.042C95.3935 125.27 95.2451 125.633 95.3668 125.911C95.4426 126.247 94.9723 126.375 94.8804 126.043Z"
            fill="#030075" />
        <path
            d="M160.5 85.6C160.5 99.7891 154.863 113.397 144.83 123.43C134.797 133.463 121.189 139.1 107 139.1C92.8109 139.1 79.203 133.463 69.1698 123.43C59.1366 113.397 53.5 99.7891 53.5 85.6C53.5 85.6 69.1698 123.43 107 123.43C144.83 123.43 160.5 85.6 160.5 85.6Z"
            fill="black" />
    </g>
</svg>